<?xml version="1.0" encoding="UTF-8"?>
<svg width="661px" height="299px" viewBox="0 0 661 299" xmlns="http://www.w3.org/2000/svg" xmlns:xlink="http://www.w3.org/1999/xlink" version="1.1">
 <!-- Generated by Pixelmator Pro 1.6.1 -->
 <g id="standart">
  <path id="path" d="M507.5 29 L626 92.592 626 219.775 507.5 283.366 389 219.775 389 92.592 Z" fill="#ffffff" fill-opacity="1" stroke="none"/>
  <path id="path-1" d="M508 32 L624 94.25 624 218.75 508 281 392 218.75 392 94.25 Z" fill="#90c325" fill-opacity="1" stroke="none"/>
  <g id="New-Group">
   <defs>
    <text id="string" transform="matrix(1.0 0.0 0.0 1.0 524.902832 87.5)" text-decoration="none" font-family="Futura-CondensedExtraBold, Futura" font-size="115" y="115.0" x="1.0">e</text>
   </defs>
   <use id="e" xlink:href="#string" fill="#ffffff" fill-opacity="1" stroke="none"/>
   <defs>
    <text id="string-1" transform="matrix(1.0 0.0 0.0 1.0 429.5 87.5)" text-decoration="none" font-family="Futura-CondensedExtraBold, Futura" font-size="115" y="115.0" x="1.0">m</text>
   </defs>
   <use id="m" xlink:href="#string-1" fill="#ffffff" fill-opacity="1" stroke="none"/>
   <defs>
    <text id="string-2" transform="matrix(1.0 0.0 0.0 1.0 300.967773 87.5)" text-decoration="none" font-family="Futura-CondensedExtraBold, Futura" font-size="115" y="115.0" x="1.0">k</text>
   </defs>
   <use id="k" xlink:href="#string-2" fill="#000000" fill-opacity="1" stroke="none"/>
   <defs>
    <text id="string-3" transform="matrix(1.0 0.0 0.0 1.0 238.35791 87.5)" text-decoration="none" font-family="Futura-CondensedExtraBold, Futura" font-size="115" y="115.0" x="1.0">e</text>
   </defs>
   <use id="e-1" xlink:href="#string-3" fill="#000000" fill-opacity="1" stroke="none"/>
   <defs>
    <text id="string-4" transform="matrix(1.0 0.0 0.0 1.0 142.955078 87.5)" text-decoration="none" font-family="Futura-CondensedExtraBold, Futura" font-size="115" y="115.0" x="1.0">m</text>
   </defs>
   <use id="m-1" xlink:href="#string-4" fill="#000000" fill-opacity="1" stroke="none"/>
   <defs>
    <text id="string-5" transform="matrix(1.0 0.0 0.0 1.0 79.559082 87.5)" text-decoration="none" font-family="Futura-CondensedExtraBold, Futura" font-size="115" y="115.0" x="1.0">o</text>
   </defs>
   <use id="o" xlink:href="#string-5" fill="#000000" fill-opacity="1" stroke="none"/>
   <defs>
    <text id="string-6" transform="matrix(1.0 0.0 0.0 1.0 16.5 87.5)" text-decoration="none" font-family="Futura-CondensedExtraBold, Futura" font-size="115" y="115.0" x="1.0">k</text>
   </defs>
   <use id="k-1" xlink:href="#string-6" fill="#000000" fill-opacity="1" stroke="none"/>
  </g>
  <g id="new-group">
   <path id="Line" d="M392 96 L415.75 107.567" fill="none" stroke="#ffffff" stroke-width="3" stroke-opacity="1" stroke-linejoin="round"/>
   <path id="Line-1" d="M598.907 106.373 L622.843 95.195" fill="none" stroke="#ffffff" stroke-width="3" stroke-opacity="1" stroke-linejoin="round"/>
   <path id="Line-2" d="M508 281 L508 255" fill="none" stroke="#ffffff" stroke-width="2" stroke-opacity="1" stroke-linejoin="round"/>
  </g>
 </g>
</svg>
