<?xml version="1.0" encoding="UTF-8"?>
<svg width="387px" height="140px" viewBox="0 0 387 140" xmlns="http://www.w3.org/2000/svg" xmlns:xlink="http://www.w3.org/1999/xlink" version="1.1">
 <!-- Generated by Pixelmator Pro 1.6.1 -->
 <g id="Standart">
  <g id="Share-Icon">
   <path id="Path" d="M342.02 59.142 C339.832 59.142 337.918 59.963 336.55 61.33 L317.134 50.118 C317.408 49.571 317.408 48.751 317.408 48.204 317.408 43.555 313.853 40 309.204 40 304.555 40 301 43.555 301 48.204 301 52.853 304.555 56.408 309.204 56.408 311.392 56.408 313.306 55.587 314.673 54.22 L334.089 65.432 C333.816 65.979 333.816 66.799 333.816 67.346 333.816 67.893 333.816 68.714 334.089 69.261 L314.673 80.746 C313.306 79.379 311.392 78.558 309.204 78.558 304.828 78.558 301.273 82.113 301.273 86.489 301.273 90.864 304.828 94.419 309.204 94.419 313.579 94.419 317.134 90.864 317.134 86.489 317.134 85.942 317.134 85.395 316.861 84.575 L336.277 73.089 C337.644 74.456 339.558 75.277 341.746 75.277 346.395 75.277 349.95 71.722 349.95 67.073 349.95 62.424 346.668 59.142 342.02 59.142 Z" fill="#005493" fill-opacity="1" stroke="none"/>
   <path id="Ellipse" d="M369 68 C369 41.49 347.51 20 321 20 294.49 20 273 41.49 273 68 273 94.51 294.49 116 321 116 347.51 116 369 94.51 369 68 Z" fill="none" stroke="#005493" stroke-width="10" stroke-opacity="1" stroke-linejoin="round"/>
  </g>
  <g id="Share-Text">
   <defs>
    <text id="string" transform="matrix(1.0 0.0 0.0 1.0 9.895585060119998 8.796875)" text-decoration="none" x="1.0" font-family="Arial-BoldItalicMT, Arial" y="83.0" font-size="91.854">share</text>
   </defs>
   <use id="text" xlink:href="#string" fill="#005493" fill-opacity="1" stroke="none"/>
   <path id="Path-1" d="M179.69 103.265 L183.53 103.265 191.978 85.599 179.69 85.599 Z" fill="#005493" fill-opacity="1" stroke="none"/>
   <path id="Path-1" d="M182.762 118.394 L182.844 118.394 191.21 96.888 182.762 96.888 Z" fill="#005493" fill-opacity="1" stroke="none"/>
  </g>
 </g>
</svg>
