<?xml version="1.0" encoding="UTF-8"?>
<svg width="605px" height="136px" viewBox="0 0 605 136" xmlns="http://www.w3.org/2000/svg" xmlns:xlink="http://www.w3.org/1999/xlink" version="1.1">
 <!-- Generated by Pixelmator Pro 1.6.1 -->
 <g id="Standart">
  <defs>
   <text id="string" transform="matrix(1.0 0.0 0.0 1.0 363.0625 -7.625)" y="96.0" x="1.0" text-decoration="none" font-size="96" font-family="Futura-CondensedExtraBold, Futura">Panel </text>
  </defs>
  <use id="text-Panel" xlink:href="#string" fill="#000000" fill-opacity="1" stroke="none"/>
  <path id="Ellipse" d="M345 69 C345 42.49 323.51 21 297 21 270.49 21 249 42.49 249 69 249 95.51 270.49 117 297 117 323.51 117 345 95.51 345 69 Z" fill="none" stroke="#90c325" stroke-width="10" stroke-opacity="1" stroke-linejoin="round"/>
  <g id="App-Icon">
   <path id="Rounded-Rectangle" d="M276.5 44 C273.462 44 271 46.462 271 49.5 L271 62.409 C271 65.447 273.462 67.909 276.5 67.909 L289.5 67.909 C292.538 67.909 295 65.447 295 62.409 L295 49.5 C295 46.462 292.538 44 289.5 44 Z" fill="#90c325" fill-opacity="1" stroke="none"/>
   <path id="Rounded-Rectangle-1" d="M303.5 44 C300.462 44 298 46.462 298 49.5 L298 62.409 C298 65.447 300.462 67.909 303.5 67.909 L316.5 67.909 C319.538 67.909 322 65.447 322 62.409 L322 49.5 C322 46.462 319.538 44 316.5 44 Z" fill="#90c325" fill-opacity="1" stroke="none"/>
   <path id="Rounded-Rectangle-2" d="M276.5 70 C273.462 70 271 72.462 271 75.5 L271 88.409 C271 91.447 273.462 93.909 276.5 93.909 L289.5 93.909 C292.538 93.909 295 91.447 295 88.409 L295 75.5 C295 72.462 292.538 70 289.5 70 Z" fill="#90c325" fill-opacity="1" stroke="none"/>
   <g id="New-Group">
    <path id="Line" d="M310 72 L310 92" fill="none" stroke="#90c325" stroke-width="3" stroke-opacity="1" stroke-linejoin="round"/>
    <path id="Line-1" d="M320 82.064 L300 81.936" fill="none" stroke="#90c325" stroke-width="3" stroke-opacity="1" stroke-linejoin="round"/>
   </g>
  </g>
  <g id="Quick">
   <defs>
    <text id="string-1" transform="matrix(1.0 0.0 0.0 1.0 -3.104415119580011 9.796875)" y="83.0" x="1.0" text-decoration="none" font-size="91.854" font-family="Arial-BoldItalicMT, Arial">quick </text>
   </defs>
   <use id="text-quick" xlink:href="#string-1" fill="#90c325" fill-opacity="1" stroke="none"/>
   <path id="Path" d="M36.69 122.265 L40.53 122.265 48.978 104.599 36.69 104.599 Z" fill="#90c325" fill-opacity="1" stroke="none"/>
   <path id="Path-1" d="M39.762 137.394 L39.844 137.394 48.21 115.888 39.762 115.888 Z" fill="#90c325" fill-opacity="1" stroke="none"/>
  </g>
 </g>
</svg>
