<?xml version="1.0" encoding="UTF-8"?>
<svg width="600px" height="140px" viewBox="0 0 600 140" xmlns="http://www.w3.org/2000/svg" xmlns:xlink="http://www.w3.org/1999/xlink" version="1.1">
 <!-- Generated by Pixelmator Pro 1.6.1 -->
 <g id="Standart">
  <g id="App-Icon">
   <path id="Rounded-Rectangle" d="M504.5 45 C501.462 45 499 47.462 499 50.5 L499 63.409 C499 66.447 501.462 68.909 504.5 68.909 L517.5 68.909 C520.538 68.909 523 66.447 523 63.409 L523 50.5 C523 47.462 520.538 45 517.5 45 Z" fill="#90c325" fill-opacity="1" stroke="none"/>
   <path id="Rounded-Rectangle-1" d="M531.5 45 C528.462 45 526 47.462 526 50.5 L526 63.409 C526 66.447 528.462 68.909 531.5 68.909 L544.5 68.909 C547.538 68.909 550 66.447 550 63.409 L550 50.5 C550 47.462 547.538 45 544.5 45 Z" fill="#90c325" fill-opacity="1" stroke="none"/>
   <path id="Rounded-Rectangle-2" d="M504.5 71 C501.462 71 499 73.462 499 76.5 L499 89.409 C499 92.447 501.462 94.909 504.5 94.909 L517.5 94.909 C520.538 94.909 523 92.447 523 89.409 L523 76.5 C523 73.462 520.538 71 517.5 71 Z" fill="#90c325" fill-opacity="1" stroke="none"/>
   <g id="New-Group">
    <path id="Line" d="M538 73 L538 93" fill="none" stroke="#90c325" stroke-width="3" stroke-opacity="1" stroke-linejoin="round"/>
    <path id="Line-1" d="M548 83.064 L528 82.936" fill="none" stroke="#90c325" stroke-width="3" stroke-opacity="1" stroke-linejoin="round"/>
   </g>
   <path id="Ellipse" d="M573 70 C573 43.49 551.51 22 525 22 498.49 22 477 43.49 477 70 477 96.51 498.49 118 525 118 551.51 118 573 96.51 573 70 Z" fill="none" stroke="#90c325" stroke-width="10" stroke-opacity="1" stroke-linejoin="round"/>
  </g>
  <g id="App-Text">
   <defs>
    <text id="string" transform="matrix(1.0 0.0 0.0 1.0 9.055974055019988 10.849609375)" text-decoration="none" x="1.0" font-family="Arial-BoldItalicMT, Arial" y="83.0" font-size="91.854">base apps</text>
   </defs>
   <use id="text" xlink:href="#string" fill="#90c325" fill-opacity="1" stroke="none"/>
   <path id="Path" d="M301.69 120.265 L305.53 120.265 313.978 102.599 301.69 102.599 Z" fill="#90c325" fill-opacity="1" stroke="none"/>
   <path id="Path-1" d="M304.762 135.394 L304.844 135.394 313.21 113.888 304.762 113.888 Z" fill="#90c325" fill-opacity="1" stroke="none"/>
  </g>
 </g>
</svg>
