<?xml version="1.0" encoding="UTF-8"?>
<svg width="605px" height="136px" viewBox="0 0 605 136" xmlns="http://www.w3.org/2000/svg" xmlns:xlink="http://www.w3.org/1999/xlink" version="1.1">
 <!-- Generated by Pixelmator Pro 1.6.1 -->
 <g id="Standart">
  <defs>
   <text id="string" transform="matrix(1.0 0.0 0.0 1.0 363.0625 -7.625)" x="1.0" y="96.0" text-decoration="none" font-family="Futura-CondensedExtraBold, Futura" font-size="96">Panel</text>
  </defs>
  <use id="Panel" xlink:href="#string" fill="#000000" fill-opacity="1" stroke="none"/>
  <path id="Path" d="M318.02 60.142 C315.832 60.142 313.918 60.963 312.55 62.33 L293.134 51.118 C293.408 50.571 293.408 49.751 293.408 49.204 293.408 44.555 289.853 41 285.204 41 280.555 41 277 44.555 277 49.204 277 53.853 280.555 57.408 285.204 57.408 287.392 57.408 289.306 56.587 290.673 55.22 L310.089 66.432 C309.816 66.979 309.816 67.799 309.816 68.346 309.816 68.893 309.816 69.714 310.089 70.261 L290.673 81.746 C289.306 80.379 287.392 79.558 285.204 79.558 280.828 79.558 277.273 83.113 277.273 87.489 277.273 91.864 280.828 95.419 285.204 95.419 289.579 95.419 293.134 91.864 293.134 87.489 293.134 86.942 293.134 86.395 292.861 85.575 L312.277 74.089 C313.644 75.456 315.558 76.277 317.746 76.277 322.395 76.277 325.95 72.722 325.95 68.073 325.95 63.424 322.668 60.142 318.02 60.142 Z" fill="#005493" fill-opacity="1" stroke="none"/>
  <path id="Ellipse" d="M345 69 C345 42.49 323.51 21 297 21 270.49 21 249 42.49 249 69 249 95.51 270.49 117 297 117 323.51 117 345 95.51 345 69 Z" fill="none" stroke="#005493" stroke-width="10" stroke-opacity="1" stroke-linejoin="round"/>
  <g id="Quick">
   <defs>
    <text id="string-1" transform="matrix(1.0 0.0 0.0 1.0 -3.1044149398800016 9.796875)" x="1.0" y="83.0" text-decoration="none" font-family="Arial-BoldItalicMT, Arial" font-size="91.854">quick</text>
   </defs>
   <use id="quick" xlink:href="#string-1" fill="#005493" fill-opacity="1" stroke="none"/>
   <path id="Path-1" d="M36.69 122.265 L40.53 122.265 48.978 104.599 36.69 104.599 Z" fill="#005493" fill-opacity="1" stroke="none"/>
   <path id="Path-1" d="M39.762 137.394 L39.844 137.394 48.21 115.888 39.762 115.888 Z" fill="#005493" fill-opacity="1" stroke="none"/>
  </g>
 </g>
</svg>
