<?xml version="1.0" encoding="UTF-8"?>
<svg width="600px" height="140px" viewBox="0 0 600 140" xmlns="http://www.w3.org/2000/svg" xmlns:xlink="http://www.w3.org/1999/xlink" version="1.1">
 <!-- Generated by Pixelmator Pro 1.6.1 -->
 <g id="Standart">
  <g id="App-Icon">
   <path id="Ellipse" d="M559 70 C559 43.49 537.51 22 511 22 484.49 22 463 43.49 463 70 463 96.51 484.49 118 511 118 537.51 118 559 96.51 559 70 Z" fill="none" stroke="#f7ba00" stroke-width="10" stroke-opacity="1" stroke-linejoin="round"/>
  </g>
  <path id="Vertical-Bars" d="M524.5 91 L524.5 40.278 533 40.278 533 91 524.5 91 Z M510.333 91 L510.333 55.196 518.833 55.196 518.833 91 510.333 91 Z M496.167 91 L496.167 70.114 504.667 70.114 504.667 91 496.167 91 Z M482 91 L482 82.049 490.5 82.049 490.5 91 482 91 Z" fill="#f7ba00" fill-opacity="1" stroke="none"/>
  <g id="App-Text">
   <defs>
    <text id="string" transform="matrix(1.0 0.0 0.0 1.0 37.555974006640014 10.849609375)" x="1.0" font-size="91.854" text-decoration="none" font-family="Arial-BoldItalicMT, Arial" y="83.0">currency</text>
   </defs>
   <use id="currency" xlink:href="#string" fill="#f7ba00" fill-opacity="1" stroke="none"/>
   <defs>
    <linearGradient id="linear-gradient" gradientUnits="userSpaceOnUse" x1="236.146" y1="3.996" x2="236.146" y2="120.863">
     <stop offset="0" stop-color="#fdbe2e" stop-opacity="1"/>
     <stop offset="1" stop-color="#ffcb02" stop-opacity="0"/>
    </linearGradient>
   </defs>
   <path id="Path" d="M152.69 111.265 L156.53 111.265 164.978 93.599 152.69 93.599 Z" fill="#f7ba00" fill-opacity="1" stroke="none"/>
   <path id="Path-1" d="M155.762 126.394 L155.844 126.394 164.21 104.888 155.762 104.888 Z" fill="#f7ba00" fill-opacity="1" stroke="none"/>
  </g>
 </g>
</svg>
