<?xml version="1.0" encoding="UTF-8"?>
<svg width="661px" height="299px" viewBox="0 0 661 299" xmlns="http://www.w3.org/2000/svg" xmlns:xlink="http://www.w3.org/1999/xlink" version="1.1">
 <!-- Generated by Pixelmator Pro 1.6.1 -->
 <g id="Standart">
  <path id="Box" d="M508 32 L624 94.25 624 218.75 508 281 392 218.75 392 94.25 508 32 Z" fill="#90c325" fill-opacity="1" stroke="none"/>
  <defs>
   <text id="string" transform="matrix(1.0 0.0 0.0 1.0 429.5 87.5)" text-decoration="none" y="115.0" font-family="Futura-CondensedExtraBold, Futura" x="1.0" font-size="115">me </text>
  </defs>
  <use id="me-white" xlink:href="#string" fill="#ffffff" fill-opacity="1" stroke="none"/>
  <defs>
   <text id="string-1" transform="matrix(1.0 0.0 0.0 1.0 16.5 87.5)" text-decoration="none" y="115.0" font-family="Futura-CondensedExtraBold, Futura" x="1.0" font-size="115">komek </text>
  </defs>
  <use id="komek-" xlink:href="#string-1" fill="#000000" fill-opacity="1" stroke="none"/>
  <g id="New-Group">
   <path id="Rounded-Rectangle" d="M597.717 106.048 C596.433 106.768 595.976 108.392 596.696 109.676 L596.696 109.676 C597.416 110.959 599.041 111.416 600.324 110.696 L623.323 97.796 C624.606 97.076 625.063 95.452 624.343 94.168 L624.343 94.168 C623.623 92.885 621.999 92.428 620.715 93.148 Z" fill="#ffffff" fill-opacity="1" stroke="none"/>
   <path id="Rounded-Rectangle-1" d="M395.039 92.49 C393.732 91.813 392.124 92.324 391.447 93.631 L391.447 93.631 C390.77 94.938 391.28 96.546 392.587 97.223 L416 109.354 C417.307 110.031 418.916 109.52 419.593 108.213 L419.593 108.213 C420.27 106.907 419.759 105.298 418.452 104.621 Z" fill="#ffffff" fill-opacity="1" stroke="none"/>
   <path id="Rounded-Rectangle-2" d="M505.855 279.107 C505.855 280.579 507.048 281.772 508.52 281.772 L508.52 281.772 C509.992 281.772 511.185 280.579 511.185 279.107 L511.185 252.737 C511.185 251.266 509.992 250.072 508.52 250.072 L508.52 250.072 C507.048 250.072 505.855 251.266 505.855 252.737 Z" fill="#ffffff" fill-opacity="1" stroke="none"/>
  </g>
 </g>
</svg>
